<svg width="411" height="545" viewBox="0 0 411 545" fill="none" xmlns="http://www.w3.org/2000/svg">
<path fill-rule="evenodd" clip-rule="evenodd" d="M102.953 277.161C97.3755 271.31 97.8206 262.291 103.947 257.018L106.742 254.612C112.868 249.338 122.355 249.806 127.932 255.657C133.509 261.509 133.064 270.527 126.938 275.801L124.143 278.207C118.017 283.48 108.529 283.012 102.953 277.161Z" fill="#D8E5EC" fill-opacity="0.2"/>
<path fill-rule="evenodd" clip-rule="evenodd" d="M187.916 434.868C182.336 429.013 182.781 419.99 188.911 414.713L206.704 399.396C212.833 394.119 222.325 394.588 227.906 400.442C233.486 406.297 233.04 415.32 226.911 420.597L209.118 435.914C202.989 441.191 193.496 440.722 187.916 434.868Z" fill="#D8E5EC" fill-opacity="0.2"/>
<path fill-rule="evenodd" clip-rule="evenodd" d="M272.44 439.04C266.852 433.176 267.298 424.139 273.436 418.854L553.206 177.971C559.344 172.686 568.85 173.155 574.437 179.018C580.025 184.882 579.579 193.919 573.441 199.204L293.671 440.087C287.533 445.372 278.028 444.903 272.44 439.04Z" fill="#D8E5EC" fill-opacity="0.2"/>
<path fill-rule="evenodd" clip-rule="evenodd" d="M385.32 418.798C379.733 412.936 380.179 403.9 386.316 398.616L567.621 242.516C573.758 237.232 583.262 237.701 588.849 243.564C594.436 249.426 593.99 258.462 587.853 263.746L406.548 419.846C400.411 425.13 390.907 424.661 385.32 418.798Z" fill="#D8E5EC" fill-opacity="0.2"/>
<path fill-rule="evenodd" clip-rule="evenodd" d="M236.332 393.175C230.744 387.311 231.19 378.273 237.328 372.988L567.167 88.9932C573.305 83.7081 582.811 84.1773 588.399 90.0411C593.987 95.9049 593.541 104.943 587.403 110.228L257.564 394.223C251.425 399.508 241.92 399.039 236.332 393.175Z" fill="#D8E5EC" fill-opacity="0.2"/>
<path fill-rule="evenodd" clip-rule="evenodd" d="M130.96 406.95C125.372 401.086 125.818 392.048 131.957 386.763L551.92 25.1655C558.059 19.8801 567.565 20.3493 573.153 26.2134C578.742 32.0776 578.296 41.116 572.157 46.4014L152.193 407.998C146.055 413.284 136.549 412.815 130.96 406.95Z" fill="#D8E5EC" fill-opacity="0.2"/>
<path fill-rule="evenodd" clip-rule="evenodd" d="M136.353 248.397C130.765 242.534 131.211 233.497 137.349 228.212L400.43 1.69904C406.567 -3.5856 416.073 -3.11648 421.66 2.74689C427.248 8.61025 426.802 17.6475 420.664 22.9321L157.583 249.445C151.445 254.73 141.94 254.261 136.353 248.397Z" fill="#D8E5EC" fill-opacity="0.2"/>
<path fill-rule="evenodd" clip-rule="evenodd" d="M177.016 136.428C171.43 130.566 171.876 121.532 178.012 116.248L312.589 0.38239C318.725 -4.90075 328.228 -4.43173 333.815 1.42999C339.401 7.29171 338.955 16.3264 332.819 21.6096L198.242 137.476C192.106 142.759 182.603 142.29 177.016 136.428Z" fill="#D8E5EC" fill-opacity="0.2"/>
<path fill-rule="evenodd" clip-rule="evenodd" d="M125.728 334.5C120.141 328.636 120.587 319.598 126.725 314.313L459.902 27.4437C466.04 22.1587 475.546 22.6279 481.134 28.4917C486.722 34.3554 486.275 43.3934 480.137 48.6784L146.96 335.548C140.822 340.833 131.316 340.363 125.728 334.5Z" fill="#D8E5EC" fill-opacity="0.2"/>
</svg>
