<svg width="68" height="65" viewBox="0 0 68 65" fill="none" xmlns="http://www.w3.org/2000/svg">
<path d="M42.8603 9.07621C40.3183 9.69321 38.3173 11.8542 37.3493 15.0202C36.8933 16.5102 36.6933 18.3582 36.8433 19.7042C37.1353 22.3642 38.3813 24.4502 40.2293 25.3872C40.8563 25.7022 41.4823 25.8672 42.0813 25.8672C42.5583 25.8672 42.9783 25.7812 43.4583 25.5872C46.3573 24.4142 48.3623 21.4172 48.7963 17.6042C48.8713 16.9342 48.8533 15.6272 48.7563 14.8412C48.6143 13.6712 48.4463 13.0462 48.0593 12.2382C47.4503 10.9712 46.5953 10.0342 45.5493 9.49621C44.9754 9.18225 44.3334 9.01334 43.6793 9.00421C43.2773 8.99421 43.1703 9.00021 42.8603 9.07621ZM24.8493 9.04921C23.3933 9.30721 22.0653 10.3892 21.2593 11.9792C20.5023 13.4662 20.2953 15.5572 20.6883 17.7532C21.1883 20.5532 22.6473 22.9142 24.7243 24.2762C25.1813 24.5762 25.9373 24.9432 26.4513 25.1102C26.8153 25.2292 26.9083 25.2432 27.3113 25.2602C27.8473 25.2812 28.2293 25.2332 28.6963 25.0862C29.404 24.8696 30.0476 24.4822 30.5703 23.9582C31.6723 22.8792 32.3583 21.2562 32.5183 19.3382C32.5823 18.5502 32.5113 17.3762 32.3363 16.4582C31.7123 13.1342 29.8743 10.5222 27.4113 9.46421C26.4513 9.05221 25.6053 8.91621 24.8493 9.04921ZM56.4783 20.9102C54.1023 21.3122 52.0063 23.0002 50.7123 25.5622C50.0983 26.7772 49.7743 27.8262 49.5403 29.3512C49.4583 29.9012 49.4433 30.1082 49.4433 30.7352C49.4433 31.5032 49.4873 31.8842 49.6413 32.5052C50.0543 34.1692 51.0293 35.5252 52.2403 36.1262C52.9013 36.4562 53.5053 36.5772 54.1853 36.5142C55.8353 36.3662 57.3053 35.6022 58.6133 34.2142C60.0553 32.6812 61.0473 30.5622 61.3713 28.3352C61.4533 27.7782 61.5113 26.6882 61.4863 26.2412C61.3533 23.9412 60.1523 21.9252 58.4803 21.1862C57.8333 20.9022 57.1223 20.8022 56.4783 20.9102ZM10.2473 22.2682C8.7373 22.7582 7.5973 24.0342 7.3293 25.5382C7.2333 26.0702 7.1993 26.8142 7.2363 27.4832C7.3703 29.9072 8.6053 32.4672 10.4853 34.2312C10.8983 34.6182 11.6883 35.2072 12.1763 35.4842C13.3063 36.1362 14.6113 36.5292 15.7823 36.5772C16.0923 36.5892 16.8073 36.4762 17.0853 36.3692C18.3213 35.9012 19.2673 34.8502 19.6883 33.4732C19.9483 32.6262 19.9903 31.5892 19.8143 30.4022C19.7358 29.7939 19.5909 29.196 19.3823 28.6192C18.5073 26.0832 16.5623 23.8762 14.2133 22.7572C13.5713 22.4472 12.6803 22.1502 12.2093 22.0862C11.5497 22.0129 10.8821 22.0748 10.2473 22.2682ZM34.0843 30.9592C32.6408 31.1253 31.2312 31.5111 29.9043 32.1032C27.8043 33.0362 25.7763 34.5882 24.4663 36.2732C21.6403 39.9152 19.6783 43.8582 18.8793 47.4952C18.8303 47.7192 18.7453 48.0572 18.6923 48.2492C18.4215 49.27 18.4654 50.3488 18.8183 51.3442C19.3863 52.9242 20.6143 54.1502 22.1353 54.6642C23.0433 54.9692 24.4013 54.9652 25.9143 54.6472C26.8993 54.4442 27.6373 54.2072 29.7293 53.4302C32.6413 52.3422 33.4473 52.1342 35.4063 51.9512C36.2823 51.8702 36.4403 51.8662 37.0443 51.9112C38.5893 52.0212 39.8093 52.3582 42.1533 53.3202C44.2293 54.1702 45.3893 54.6312 45.6813 54.7132C48.6003 55.5432 51.4993 54.5212 52.4923 52.3092C52.9263 51.3362 52.9753 49.7522 52.6103 48.2492C52.2533 46.7862 51.1953 44.4122 50.1813 42.8112C47.3273 38.2982 45.2713 35.7692 42.9233 33.8632C40.6973 32.0632 38.8483 31.2152 36.5533 30.9592C35.7319 30.8859 34.9057 30.8859 34.0843 30.9592Z" stroke="#888888" stroke-width="4"/>
</svg>
