<svg width="67" height="65" viewBox="0 0 67 65" fill="none" xmlns="http://www.w3.org/2000/svg">
<path d="M42.3601 9.07621C39.8181 9.69321 37.8171 11.8542 36.8491 15.0202C36.3931 16.5102 36.1931 18.3582 36.3431 19.7042C36.6351 22.3642 37.8811 24.4502 39.7291 25.3872C40.3561 25.7022 40.9821 25.8672 41.5811 25.8672C42.0581 25.8672 42.4781 25.7812 42.9581 25.5872C45.8571 24.4142 47.8621 21.4172 48.2961 17.6042C48.3711 16.9342 48.3531 15.6272 48.2561 14.8412C48.1141 13.6712 47.9461 13.0462 47.5591 12.2382C46.9501 10.9712 46.0951 10.0342 45.0491 9.49621C44.4751 9.18225 43.8332 9.01334 43.1791 9.00421C42.7771 8.99421 42.6701 9.00021 42.3601 9.07621ZM24.3491 9.04921C22.8931 9.30721 21.5651 10.3892 20.7591 11.9792C20.0021 13.4662 19.7951 15.5572 20.1881 17.7532C20.6881 20.5532 22.1471 22.9142 24.2241 24.2762C24.6811 24.5762 25.4371 24.9432 25.9511 25.1102C26.3151 25.2292 26.4081 25.2432 26.8111 25.2602C27.3471 25.2812 27.7291 25.2332 28.1961 25.0862C28.9038 24.8696 29.5474 24.4822 30.0701 23.9582C31.1721 22.8792 31.8581 21.2562 32.0181 19.3382C32.0821 18.5502 32.0111 17.3762 31.8361 16.4582C31.2121 13.1342 29.3741 10.5222 26.9111 9.46421C25.9511 9.05221 25.1051 8.91621 24.3491 9.04921ZM55.9781 20.9102C53.6021 21.3122 51.5061 23.0002 50.2121 25.5622C49.5981 26.7772 49.2741 27.8262 49.0401 29.3512C48.9581 29.9012 48.9431 30.1082 48.9431 30.7352C48.9431 31.5032 48.9871 31.8842 49.1411 32.5052C49.5541 34.1692 50.5291 35.5252 51.7401 36.1262C52.4011 36.4562 53.0051 36.5772 53.6851 36.5142C55.3351 36.3662 56.8051 35.6022 58.1131 34.2142C59.5551 32.6812 60.5471 30.5622 60.8711 28.3352C60.9531 27.7782 61.0111 26.6882 60.9861 26.2412C60.8531 23.9412 59.6521 21.9252 57.9801 21.1862C57.3331 20.9022 56.6221 20.8022 55.9781 20.9102ZM9.74706 22.2682C8.23706 22.7582 7.09706 24.0342 6.82906 25.5382C6.73306 26.0702 6.69906 26.8142 6.73606 27.4832C6.87006 29.9072 8.10506 32.4672 9.98506 34.2312C10.3981 34.6182 11.1881 35.2072 11.6761 35.4842C12.8061 36.1362 14.1111 36.5292 15.2821 36.5772C15.5921 36.5892 16.3071 36.4762 16.5851 36.3692C17.8211 35.9012 18.7671 34.8502 19.1881 33.4732C19.4481 32.6262 19.4901 31.5892 19.3141 30.4022C19.2355 29.7939 19.0907 29.196 18.8821 28.6192C18.0071 26.0832 16.0621 23.8762 13.7131 22.7572C13.0711 22.4472 12.1801 22.1502 11.7091 22.0862C11.0495 22.0129 10.3819 22.0748 9.74706 22.2682ZM33.5841 30.9592C32.1406 31.1253 30.7309 31.5111 29.4041 32.1032C27.3041 33.0362 25.2761 34.5882 23.9661 36.2732C21.1401 39.9152 19.1781 43.8582 18.3791 47.4952C18.3301 47.7192 18.2451 48.0572 18.1921 48.2492C17.9213 49.27 17.9652 50.3488 18.3181 51.3442C18.8861 52.9242 20.1141 54.1502 21.6351 54.6642C22.5431 54.9692 23.9011 54.9652 25.4141 54.6472C26.3991 54.4442 27.1371 54.2072 29.2291 53.4302C32.1411 52.3422 32.9471 52.1342 34.9061 51.9512C35.7821 51.8702 35.9401 51.8662 36.5441 51.9112C38.0891 52.0212 39.3091 52.3582 41.6531 53.3202C43.7291 54.1702 44.8891 54.6312 45.1811 54.7132C48.1001 55.5432 50.9991 54.5212 51.9921 52.3092C52.4261 51.3362 52.4751 49.7522 52.1101 48.2492C51.7531 46.7862 50.6951 44.4122 49.6811 42.8112C46.8271 38.2982 44.7711 35.7692 42.4231 33.8632C40.1971 32.0632 38.3481 31.2152 36.0531 30.9592C35.2317 30.8859 34.4054 30.8859 33.5841 30.9592Z" fill="#7846D0"/>
<path d="M42.3603 9.07621C39.8183 9.69321 37.8173 11.8542 36.8493 15.0202C36.3933 16.5102 36.1933 18.3582 36.3433 19.7042C36.6353 22.3642 37.8813 24.4502 39.7293 25.3872C40.3563 25.7022 40.9823 25.8672 41.5813 25.8672C42.0583 25.8672 42.4783 25.7812 42.9583 25.5872C45.8573 24.4142 47.8623 21.4172 48.2963 17.6042C48.3713 16.9342 48.3533 15.6272 48.2563 14.8412C48.1143 13.6712 47.9463 13.0462 47.5593 12.2382C46.9503 10.9712 46.0953 10.0342 45.0493 9.49621C44.4754 9.18225 43.8334 9.01334 43.1793 9.00421C42.7773 8.99421 42.6703 9.00021 42.3603 9.07621ZM24.3493 9.04921C22.8933 9.30721 21.5653 10.3892 20.7593 11.9792C20.0023 13.4662 19.7953 15.5572 20.1883 17.7532C20.6883 20.5532 22.1473 22.9142 24.2243 24.2762C24.6813 24.5762 25.4373 24.9432 25.9513 25.1102C26.3153 25.2292 26.4083 25.2432 26.8113 25.2602C27.3473 25.2812 27.7293 25.2332 28.1963 25.0862C28.904 24.8696 29.5476 24.4822 30.0703 23.9582C31.1723 22.8792 31.8583 21.2562 32.0183 19.3382C32.0823 18.5502 32.0113 17.3762 31.8363 16.4582C31.2123 13.1342 29.3743 10.5222 26.9113 9.46421C25.9513 9.05221 25.1053 8.91621 24.3493 9.04921ZM55.9783 20.9102C53.6023 21.3122 51.5063 23.0002 50.2123 25.5622C49.5983 26.7772 49.2743 27.8262 49.0403 29.3512C48.9583 29.9012 48.9433 30.1082 48.9433 30.7352C48.9433 31.5032 48.9873 31.8842 49.1413 32.5052C49.5543 34.1692 50.5293 35.5252 51.7403 36.1262C52.4013 36.4562 53.0053 36.5772 53.6853 36.5142C55.3353 36.3662 56.8053 35.6022 58.1133 34.2142C59.5553 32.6812 60.5473 30.5622 60.8713 28.3352C60.9533 27.7782 61.0113 26.6882 60.9863 26.2412C60.8533 23.9412 59.6523 21.9252 57.9803 21.1862C57.3333 20.9022 56.6223 20.8022 55.9783 20.9102ZM9.7473 22.2682C8.2373 22.7582 7.0973 24.0342 6.8293 25.5382C6.7333 26.0702 6.6993 26.8142 6.7363 27.4832C6.8703 29.9072 8.1053 32.4672 9.9853 34.2312C10.3983 34.6182 11.1883 35.2072 11.6763 35.4842C12.8063 36.1362 14.1113 36.5292 15.2823 36.5772C15.5923 36.5892 16.3073 36.4762 16.5853 36.3692C17.8213 35.9012 18.7673 34.8502 19.1883 33.4732C19.4483 32.6262 19.4903 31.5892 19.3143 30.4022C19.2358 29.7939 19.0909 29.196 18.8823 28.6192C18.0073 26.0832 16.0623 23.8762 13.7133 22.7572C13.0713 22.4472 12.1803 22.1502 11.7093 22.0862C11.0497 22.0129 10.3821 22.0748 9.7473 22.2682ZM33.5843 30.9592C32.1408 31.1253 30.7312 31.5111 29.4043 32.1032C27.3043 33.0362 25.2763 34.5882 23.9663 36.2732C21.1403 39.9152 19.1783 43.8582 18.3793 47.4952C18.3303 47.7192 18.2453 48.0572 18.1923 48.2492C17.9215 49.27 17.9654 50.3488 18.3183 51.3442C18.8863 52.9242 20.1143 54.1502 21.6353 54.6642C22.5433 54.9692 23.9013 54.9652 25.4143 54.6472C26.3993 54.4442 27.1373 54.2072 29.2293 53.4302C32.1413 52.3422 32.9473 52.1342 34.9063 51.9512C35.7823 51.8702 35.9403 51.8662 36.5443 51.9112C38.0893 52.0212 39.3093 52.3582 41.6533 53.3202C43.7293 54.1702 44.8893 54.6312 45.1813 54.7132C48.1003 55.5432 50.9993 54.5212 51.9923 52.3092C52.4263 51.3362 52.4753 49.7522 52.1103 48.2492C51.7533 46.7862 50.6953 44.4122 49.6813 42.8112C46.8273 38.2982 44.7713 35.7692 42.4233 33.8632C40.1973 32.0632 38.3483 31.2152 36.0533 30.9592C35.2319 30.8859 34.4057 30.8859 33.5843 30.9592Z" stroke="#7846D0" stroke-width="4"/>
</svg>
